<?xml version="1.0" encoding="UTF-8"?>
<!-- Generator: Adobe Illustrator 25.4.1, SVG Export Plug-In . SVG Version: 6.00 Build 0)  -->
<svg version="1.1" id="Layer_1" xmlns="http://www.w3.org/2000/svg" xmlns:xlink="http://www.w3.org/1999/xlink" x="0px" y="0px" viewBox="0 0 180 180" style="enable-background:new 0 0 180 180;" xml:space="preserve">
<style type="text/css">
	.st0{filter:url(#Adobe_OpacityMaskFilter);}
	.st1{fill:none;stroke:#FFFFFF;stroke-width:7;stroke-miterlimit:10;}
	.st2{mask:url(#SVGID_1_);}
	.st3{fill:none;stroke:#0091DA;stroke-width:4;stroke-miterlimit:10;}
	.st4{fill:none;stroke:#7F35B2;stroke-width:4;stroke-miterlimit:10;}
	.st5{fill:none;stroke:#1D428A;stroke-width:4;stroke-miterlimit:10;}
	.st6{display:none;}
	.st7{display:inline;fill:#1D428A;}
	.st8{font-family:'Metropolis-Regular';}
	.st9{font-size:21px;}
	.st10{fill:#1D428A;}
	.st11{display:none;fill:none;stroke:#FFFFFF;stroke-width:19;stroke-miterlimit:10;}
	.st12{display:none;fill:none;stroke:#7F35B2;stroke-width:4;stroke-miterlimit:10;}
</style>
<defs>
	<filter id="Adobe_OpacityMaskFilter" filterUnits="userSpaceOnUse" x="47" y="10" width="86" height="99.62">
		
			<feColorMatrix type="matrix" values="-1 0 0 0 1  0 -1 0 0 1  0 0 -1 0 1  0 0 0 1 0" color-interpolation-filters="sRGB" result="source"/>
		<feFlood style="flood-color:white;flood-opacity:1" result="back"/>
		<feBlend in="source" in2="back" mode="normal"/>
	</filter>
</defs>
<mask maskUnits="userSpaceOnUse" x="47" y="10" width="86" height="99.62" id="SVGID_1_">
	<g class="st0">
		<path class="st1" d="M42.5,5.5l13,13 M137.5,5.5l-13,13 M90,102v8"/>
	</g>
</mask>
<g class="st2">
	<path class="st3" d="M131,12"/>
	<path class="st3" d="M131,12c0,0,0,46.72,0,47.67c0,25.74-41,47.67-41,47.67S49,85.42,49,59.67C49,58.72,49,12,49,12"/>
	<line class="st4" x1="49" y1="12" x2="131" y2="12"/>
</g>
<path class="st5" d="M60,23h60c0,0,0,34.19,0,34.88c0,18.84-30,34.88-30,34.88S60,76.72,60,57.88C60,57.19,60,23,60,23z   M62.62,67.81L120,34.68"/>
<text transform="matrix(1 0 0 1 11.5242 141)" class="st6"><tspan x="0" y="0" class="st7 st8 st9">VMware Carbon</tspan><tspan x="6.72" y="25.2" class="st7 st8 st9">Black Endpoint</tspan></text>
<g>
	<path class="st10" d="M26.7,126.58L20.34,141h-1.79l-6.36-14.42h1.78l5.48,12.41l5.46-12.41H26.7z"/>
	<path class="st10" d="M28.85,126.58h1.64l5.35,10.06l5.35-10.06h1.64V141h-1.64v-10.9l-5.35,10.06l-5.35-10.06V141h-1.64V126.58z"/>
	<path class="st10" d="M45.04,130.15h1.68l2.71,8.76l2.96-8.76h1.36l2.96,8.76l2.71-8.76h1.68L57.45,141h-1.49l-2.88-8.67L50.16,141   h-1.49L45.04,130.15z"/>
	<path class="st10" d="M71.71,134.39V141h-1.58v-1.7c-0.78,1.28-2.39,1.95-3.82,1.95c-2.29,0-3.97-1.32-3.97-3.46   c0-2.16,1.93-3.61,4.26-3.61c1.18,0,2.42,0.25,3.53,0.61v-0.4c0-1.47-0.59-3.15-2.94-3.15c-1.09,0-2.18,0.48-3.17,0.99l-0.63-1.28   c1.55-0.78,2.86-1.05,3.91-1.05C70.26,129.89,71.71,131.76,71.71,134.39z M70.13,137.6v-1.66c-0.99-0.27-2.1-0.44-3.28-0.44   c-1.62,0-2.98,0.92-2.98,2.23c0,1.34,1.18,2.14,2.71,2.14C68.01,139.87,69.71,139.13,70.13,137.6z"/>
	<path class="st10" d="M80.34,129.89v1.41c-2.46,0-4.2,1.51-4.2,3.63V141h-1.57v-10.85h1.57v2.12   C76.79,130.82,78.34,129.89,80.34,129.89z"/>
	<path class="st10" d="M90.33,138.54l0.97,1.03c-0.94,1.03-2.86,1.68-4.37,1.68c-2.9,0-5.5-2.37-5.5-5.71   c0-3.23,2.44-5.65,5.35-5.65c3.28,0,5.14,2.48,5.14,6.28h-8.88c0.23,2.12,1.72,3.67,3.86,3.67   C88.19,139.85,89.66,139.28,90.33,138.54z M83.07,134.76h7.31c-0.21-1.95-1.36-3.46-3.53-3.46   C84.92,131.3,83.36,132.66,83.07,134.76z"/>
	<path class="st10" d="M99.09,133.78c0-4.05,3.4-7.45,7.39-7.45c1.99,0,3.84,0.84,5.19,2.2l-1.11,1.13   c-1.05-1.11-2.5-1.83-4.07-1.83c-3.11,0-5.73,2.73-5.73,5.94c0,3.23,2.62,5.96,5.73,5.96c1.57,0,3.02-0.71,4.07-1.83l1.11,1.13   c-1.34,1.34-3.19,2.2-5.19,2.2C102.49,141.25,99.09,137.83,99.09,133.78z"/>
	<path class="st10" d="M122.19,134.39V141h-1.57v-1.7c-0.78,1.28-2.39,1.95-3.82,1.95c-2.29,0-3.97-1.32-3.97-3.46   c0-2.16,1.93-3.61,4.26-3.61c1.18,0,2.41,0.25,3.53,0.61v-0.4c0-1.47-0.59-3.15-2.94-3.15c-1.09,0-2.18,0.48-3.17,0.99l-0.63-1.28   c1.55-0.78,2.86-1.05,3.91-1.05C120.74,129.89,122.19,131.76,122.19,134.39z M120.62,137.6v-1.66c-0.99-0.27-2.1-0.44-3.28-0.44   c-1.62,0-2.98,0.92-2.98,2.23c0,1.34,1.18,2.14,2.71,2.14C118.5,139.87,120.2,139.13,120.62,137.6z"/>
	<path class="st10" d="M130.82,129.89v1.41c-2.46,0-4.2,1.51-4.2,3.63V141h-1.58v-10.85h1.58v2.12   C127.27,130.82,128.83,129.89,130.82,129.89z"/>
	<path class="st10" d="M143.17,135.56c0,3.34-2.14,5.69-5,5.69c-1.74,0-3.13-0.86-3.95-2.29V141h-1.57v-14.68h1.57v5.86   c0.82-1.43,2.21-2.29,3.95-2.29C141.03,129.89,143.17,132.24,143.17,135.56z M141.51,135.56c0-2.5-1.51-4.26-3.63-4.26   c-2.14,0-3.65,1.76-3.65,4.26s1.51,4.28,3.65,4.28C140,139.85,141.51,138.06,141.51,135.56z"/>
	<path class="st10" d="M144.81,135.56c0-3.09,2.58-5.67,5.63-5.67c3.04,0,5.61,2.58,5.61,5.67s-2.56,5.69-5.61,5.69   C147.39,141.25,144.81,138.65,144.81,135.56z M154.38,135.56c0-2.31-1.81-4.26-3.95-4.26c-2.16,0-3.97,1.95-3.97,4.26   c0,2.33,1.81,4.28,3.97,4.28C152.58,139.85,154.38,137.89,154.38,135.56z"/>
	<path class="st10" d="M167.38,134.09V141h-1.57v-6.7c0-1.76-1.11-3-2.71-3c-1.83,0-3.36,1.28-3.36,2.79V141h-1.57v-10.85h1.57v1.74   c0.63-1.15,2.04-1.99,3.57-1.99C165.7,129.89,167.38,131.64,167.38,134.09z"/>
	<path class="st10" d="M20.22,151.78h6.61c2.33,0,3.97,1.49,3.97,3.59c0,1.53-0.76,2.41-2.06,3.17c1.66,0.84,2.62,2.14,2.62,3.72   c0,2.31-1.79,3.95-4.28,3.95h-6.87V151.78z M26.41,157.89c1.6,0,2.73-0.97,2.73-2.31s-1.13-2.31-2.73-2.31h-4.56v4.62H26.41z    M26.66,164.71c1.78,0,3.04-1.11,3.04-2.67s-1.26-2.67-3.04-2.67h-4.81v5.33H26.66z"/>
	<path class="st10" d="M33.66,151.52h1.57v14.68h-1.57V151.52z"/>
	<path class="st10" d="M46.74,159.59v6.61h-1.58v-1.7c-0.78,1.28-2.39,1.95-3.82,1.95c-2.29,0-3.97-1.32-3.97-3.46   c0-2.16,1.93-3.61,4.26-3.61c1.18,0,2.42,0.25,3.53,0.61v-0.4c0-1.47-0.59-3.15-2.94-3.15c-1.09,0-2.18,0.48-3.17,0.99l-0.63-1.28   c1.55-0.78,2.86-1.05,3.91-1.05C45.29,155.09,46.74,156.96,46.74,159.59z M45.16,162.8v-1.66c-0.99-0.27-2.1-0.44-3.28-0.44   c-1.62,0-2.98,0.92-2.98,2.23c0,1.34,1.18,2.14,2.71,2.14C43.04,165.07,44.74,164.33,45.16,162.8z"/>
	<path class="st10" d="M48.86,160.76c0-3.09,2.58-5.67,5.63-5.67c1.47,0,2.83,0.61,3.86,1.6l-1.09,1.07   c-0.71-0.78-1.7-1.26-2.77-1.26c-2.16,0-3.97,1.95-3.97,4.26c0,2.33,1.81,4.28,3.97,4.28c1.09,0,2.1-0.5,2.83-1.32l1.09,1.07   c-1.03,1.03-2.42,1.66-3.93,1.66C51.44,166.45,48.86,163.85,48.86,160.76z"/>
	<path class="st10" d="M64.95,160.32l4.62,5.88h-1.97l-3.76-4.81l-1.95,1.93v2.88h-1.57v-14.68h1.57v9.83l5.94-6h2.02L64.95,160.32z   "/>
	<path class="st10" d="M78.53,153.33v4.75h7.83v1.55h-7.83v5.02h8.69v1.55H76.88v-14.42h10.35v1.55H78.53z"/>
	<path class="st10" d="M98.71,159.29v6.91h-1.58v-6.7c0-1.76-1.11-3-2.71-3c-1.83,0-3.36,1.28-3.36,2.79v6.91H89.5v-10.85h1.58v1.74   c0.63-1.15,2.04-1.99,3.57-1.99C97.03,155.09,98.71,156.84,98.71,159.29z"/>
	<path class="st10" d="M111.46,151.52v14.68h-1.57v-2.04c-0.82,1.43-2.21,2.29-3.95,2.29c-2.86,0-5-2.35-5-5.69   c0-3.32,2.14-5.67,5-5.67c1.74,0,3.13,0.86,3.95,2.29v-5.86H111.46z M109.89,160.76c0-2.5-1.51-4.26-3.65-4.26   c-2.12,0-3.63,1.76-3.63,4.26s1.51,4.28,3.63,4.28C108.37,165.05,109.89,163.26,109.89,160.76z"/>
	<path class="st10" d="M124.96,160.76c0,3.34-2.14,5.69-5,5.69c-1.74,0-3.13-0.86-3.95-2.29v5.65h-1.57v-14.47h1.57v2.04   c0.82-1.43,2.21-2.29,3.95-2.29C122.82,155.09,124.96,157.44,124.96,160.76z M123.3,160.76c0-2.5-1.51-4.26-3.63-4.26   c-2.14,0-3.65,1.76-3.65,4.26s1.51,4.28,3.65,4.28C121.79,165.05,123.3,163.26,123.3,160.76z"/>
	<path class="st10" d="M126.6,160.76c0-3.09,2.58-5.67,5.63-5.67c3.04,0,5.61,2.58,5.61,5.67s-2.56,5.69-5.61,5.69   C129.19,166.45,126.6,163.85,126.6,160.76z M136.18,160.76c0-2.31-1.81-4.26-3.95-4.26c-2.16,0-3.97,1.95-3.97,4.26   c0,2.33,1.81,4.28,3.97,4.28C134.37,165.05,136.18,163.09,136.18,160.76z"/>
	<path class="st10" d="M139.67,152.32c0-0.55,0.46-1.03,1.05-1.03c0.57,0,1.03,0.48,1.03,1.03c0,0.57-0.46,1.05-1.03,1.05   C140.13,153.37,139.67,152.89,139.67,152.32z M139.92,155.35h1.57v10.85h-1.57V155.35z"/>
	<path class="st10" d="M153.4,159.29v6.91h-1.57v-6.7c0-1.76-1.11-3-2.71-3c-1.83,0-3.36,1.28-3.36,2.79v6.91h-1.57v-10.85h1.57   v1.74c0.63-1.15,2.04-1.99,3.57-1.99C151.72,155.09,153.4,156.84,153.4,159.29z"/>
	<path class="st10" d="M161.63,165.76c-0.57,0.44-1.28,0.69-2.02,0.69c-1.55,0-2.65-1.15-2.65-2.77v-6.93h-1.7v-1.41h1.7v-2.98h1.58   v2.98h2.67v1.41h-2.67v6.93c0,0.8,0.55,1.36,1.18,1.36c0.48,0,0.9-0.19,1.13-0.44L161.63,165.76z"/>
</g>
<path class="st11" d="M95.5,78H134 M118.5,93.5L134,78l-15.5-15.5 M134.5,95H96 M111.5,79.5L96,95l15.5,15.5"/>
<path class="st12" d="M101,78h33 M124,88l10-10l-10-10 M129,95H96 M106,85L96,95l10,10"/>
</svg>