<svg xmlns="http://www.w3.org/2000/svg" viewBox="0 0 180 180" xml:space="preserve">
  <path fill="#0091DA" d="M51 60.5V17.6l-4-3.8v46.7c0 6.4 2.3 13 6.8 19.5 4.1 5.7 9 10.7 14.5 15 5.8 4.6 12 8.7 18.6 12.3v-4.5C76.9 97 51 80.5 51 60.5zm78.1-42.9v43.5c1.3.8 2.6 1.8 3.7 2.8.2-1.1.2-2.2.2-3.3V13.8l-3.9 3.8z"/>
  <path fill="#1D428A" d="M77.6 82.8c-5.8-4.7-10.1-9.4-12.7-13.9l22-12.7 2.3-1.4h.1l3.2-1.9h.1l.5-.3 24.5-14.2v14.3h4V21.1H58.4v39.3c0 7.6 5.9 16.6 16.7 25.3 2.7 2.2 5.5 4.2 8 5.8v-4.8c-1.8-1.1-3.7-2.5-5.5-3.9zM62.4 60.5V25.1h55.4v8.7l-13.4 7.7L93.1 48l-1.1.7-5 2.9-.5.3h-.1L63.3 65.2c-.7-1.4-.9-3.1-.9-4.7z"/>
  <path fill="#7F35B2" d="M128.2 9.9H51.8l4.1 4h68.3l4-4zm6.3 72.3c0-.3-.1-.6-.1-.8 0-.2-.1-.4-.1-.6 0-.2-.1-.3-.1-.5s-.1-.3-.1-.5-.1-.3-.1-.4c0-.2-.1-.3-.1-.5 0-.1-.1-.3-.1-.4-.1-.2-.1-.3-.2-.5 0-.1-.1-.3-.1-.4-.1-.2-.1-.3-.2-.5-.1-.1-.1-.3-.2-.4-.1-.2-.1-.3-.2-.5-.1-.1-.1-.3-.2-.4-.1-.3-.3-.6-.5-.8-.1-.1-.1-.2-.2-.4 0-.1-.1-.1-.1-.2s-.1-.2-.1-.2c-.1-.1-.1-.3-.2-.4-.1-.2-.2-.3-.3-.4-.1-.1-.2-.2-.2-.4-.1-.1-.2-.3-.3-.4-.1-.1-.2-.2-.3-.4-.1-.1-.2-.3-.3-.4l-.3-.3c-.1-.1-.2-.3-.3-.4l-.3-.3c-.1-.1-.2-.3-.3-.4l-.3-.3-.6-.6-.3-.3c-.1-.1-.3-.2-.4-.4l-.3-.3c-.1-.1-.3-.2-.4-.3l-.3-.3c-.1-.1-.3-.2-.4-.3-.1-.1-.2-.2-.4-.3-.1-.1-.3-.2-.4-.3-.1-.1-.2-.2-.4-.2-.2-.1-.3-.2-.5-.3-.1-.1-.2-.1-.4-.2s-.3-.2-.5-.3c-.1 0-.2-.1-.3-.1-.3-.2-.6-.3-.9-.5-.1-.1-.2-.1-.4-.2s-.3-.1-.5-.2c-.1-.1-.3-.1-.4-.2-.2-.1-.3-.1-.5-.2-.1 0-.2-.1-.4-.1h-.1c-.2-.1-.3-.1-.5-.2-.1 0-.3-.1-.4-.1-.2 0-.4-.1-.5-.1s-.3-.1-.4-.1c-.2 0-.4-.1-.5-.1s-.3-.1-.4-.1c-.4-.1-.7-.1-1.1-.2h-.3v-4.4h-4.2v4.4c-.5.1-.9.1-1.4.2-.1 0-.3 0-.4.1-.2 0-.4.1-.5.1s-.3.1-.4.1c-.2 0-.4.1-.5.1s-.3.1-.4.1c-.2.1-.3.1-.5.2-.1 0-.3.1-.4.1-.2.1-.3.1-.5.2-.1.1-.3.1-.4.2-.2.1-.3.1-.5.2-.1.1-.2.1-.4.2-.3.2-.6.3-.9.5-.1.1-.2.1-.3.1-.2.1-.3.2-.5.3-.1.1-.2.1-.4.2s-.3.2-.5.3c-.1.1-.2.2-.4.2-.1.1-.3.2-.4.3-.1.1-.2.2-.4.3-.1.1-.3.2-.4.3l-.3.3c-.1.1-.3.2-.4.3l-.3.3c-.1.1-.3.2-.4.4l-.3.3-.6.6-.3.3c-.1.1-.2.3-.3.4l-.3.3c-.1.1-.2.3-.3.4l-.3.3c-.1.1-.2.3-.3.4-.1.1-.2.2-.3.4-.1.1-.2.3-.3.4-.1.1-.2.2-.2.4-.1.1-.2.3-.3.4-.1.1-.1.3-.2.4 0 .1-.1.2-.1.2 0 .1-.1.1-.1.2-.1.1-.1.2-.2.3-.2.3-.3.6-.5.9-.1.1-.1.3-.2.4-.1.2-.1.3-.2.5-.1.1-.1.3-.2.4-.1.2-.1.3-.2.5 0 .1-.1.3-.1.4-.1.2-.1.3-.2.5 0 .1-.1.3-.1.4 0 .2-.1.3-.1.5 0 .1-.1.3-.1.4 0 .2-.1.4-.1.5s-.1.3-.1.4c-.1.4-.1.8-.2 1.2v.1h-4.4v4.2H93c0 .2 0 .3.1.5 0 .3.1.6.1.8 0 .1 0 .3.1.4v.1c0 .2.1.3.1.5s.1.3.1.4c0 .2.1.3.1.5 0 .1.1.3.1.4.1.2.1.3.2.5 0 .1.1.3.1.4.1.2.1.3.2.5.1.1.1.3.2.4.1.1.1.3.2.4v.1c.1.1.1.3.2.4.1.3.3.6.4.8.1.1.1.3.2.4.1.2.2.3.3.4.1.1.1.3.2.4.1.1.2.3.3.4.1.1.2.3.2.4.1.1.2.3.3.4.1.1.2.2.3.4.1.1.2.3.3.4.1.1.2.2.3.4.1.1.2.3.3.4l.3.3c.1.1.2.3.3.4l.3.3c0 .1.1.1.1.2l.5.5.3.3c.1.1.3.2.4.3l.3.3c.1.1.3.2.4.3.1.1.2.2.4.3.1.1.3.2.4.3.1.1.2.2.4.3.1.1.2.2.3.2 0 0 .1 0 .1.1.1.1.3.2.4.2.1.1.3.2.4.3.1.1.3.2.4.2.1.1.3.2.4.3.1.1.3.1.4.2.3.1.6.3.7.4.1.1.3.1.4.2.2.1.3.1.5.2.1.1.3.1.4.2.2.1.3.1.5.2.1.1.3.1.4.1.2.1.3.1.5.2.1 0 .3.1.4.1.2 0 .3.1.5.1s.3.1.5.1.3.1.5.1.3.1.5.1.3.1.5.1c.3 0 .6.1.8.1v4.4h4.2v-4.4c.3 0 .6-.1.8-.1.2 0 .4-.1.5-.1.2 0 .3-.1.5-.1s.3-.1.5-.1.3-.1.5-.1.3-.1.5-.1c.1 0 .3-.1.4-.1.2-.1.3-.1.5-.2.1 0 .3-.1.4-.1.2-.1.3-.1.5-.2.1-.1.3-.1.4-.2.2-.1.3-.1.5-.2.1-.1.3-.1.4-.2.3-.1.6-.3.8-.4.1-.1.3-.1.4-.2.2-.1.3-.2.4-.3.1-.1.3-.1.4-.2.1-.1.3-.2.4-.3.1-.1.3-.2.4-.2.1-.1.3-.2.4-.3.1-.1.2-.2.4-.3.1-.1.3-.2.4-.3.1-.1.2-.2.4-.3.1-.1.3-.2.4-.3l.3-.3c.1-.1.3-.2.4-.3l.3-.3.6-.6.3-.3c.1-.1.2-.3.3-.4l.3-.3c.1-.1.2-.3.3-.4.1-.1.2-.2.3-.4.1-.1.2-.3.3-.4.1-.1.2-.2.3-.4.1-.1.2-.3.3-.4.1-.1.2-.3.2-.4.1-.1.2-.3.3-.4.1-.1.2-.3.2-.4.1-.1.2-.3.3-.4.1-.1.1-.3.2-.4.1-.3.3-.6.4-.7.1-.1.1-.3.2-.4.1-.2.1-.3.2-.5.1-.1.1-.3.2-.4.1-.2.1-.3.2-.5.1-.1.1-.3.1-.4.1-.2.1-.3.2-.5 0-.1.1-.3.1-.4 0-.2.1-.3.1-.5s.1-.3.1-.5.1-.3.1-.5.1-.3.1-.5.1-.3.1-.5c0-.3.1-.6.1-.8h4.4v-4.2l-4.2.1zm-19.8 18.1c-2.6 0-5.2-.6-7.5-1.9-1.2-.6-2.4-1.5-3.4-2.4-.1-.1-.3-.2-.4-.4 1.6-.3 2.6-1.8 2.3-3.2-.3-1.6-1.8-2.6-3.2-2.3-.8.2-1.7.7-2 1.5-.9-1.9-1.5-3.9-1.7-5.9 0-.5-.1-.8-.1-1.3 0-2.5.6-5 1.8-7.2.7 1.4 2.4 1.9 3.8 1.2s1.9-2.4 1.2-3.8c-.4-.7-1.2-1.3-2-1.5 3-3 7-4.6 11.2-4.6h.7c3.9.2 7.6 1.8 10.5 4.5 1 1 1.9 2.1 2.7 3.4 4.4 7.6 1.9 17.3-5.8 21.8-2.5 1.3-5.3 2.1-8.1 2.1zM112.3 73c-1.5-.5-3.1.5-3.5 1.9-.5 1.5.5 3.1 1.9 3.5 1.5.5 3.1-.5 3.5-1.9.2-.6.2-1.3-.1-1.9-.3-.7-1-1.3-1.8-1.6zm-8.4 8.6c-1.5-.5-3.1.3-3.6 1.8-.1.3-.2.6-.2.9v.3c.2 1.6 1.6 2.7 3.1 2.5 1.5-.2 2.7-1.6 2.5-3.1 0-1.1-.7-2.1-1.8-2.4zm7.6-.1c-1.6 0-2.9 1.3-2.9 2.9 0 1.6 1.3 2.9 2.9 2.9 1.6 0 2.9-1.3 2.9-2.9-.1-1.6-1.4-2.9-2.9-2.9zm8.6 0s-.1 0 0 0c-1.7 0-2.9 1.3-2.9 2.9 0 1.6 1.3 2.9 2.9 2.9 1.6 0 2.9-1.3 2.9-2.8-.1-1.7-1.3-3-2.9-3zm-8.5 8.5c-1.6 0-2.9 1.3-2.9 2.9 0 1.6 1.3 2.9 2.9 2.9s2.9-1.3 2.9-2.9c-.2-1.7-1.5-2.9-2.9-2.9z"/>
  <g fill="#1D428A">
    <path d="M23.4 126.7 17 141.1h-1.8l-6.4-14.4h1.8l5.5 12.4 5.5-12.4h1.8zM26.1 126.7h1.6l5.4 10.1 5.4-10.1h1.6v14.4h-1.6v-10.9l-5.4 10.1-5.4-10.1v10.9h-1.6v-14.4zM42.8 130.3h1.7l2.7 8.8 3-8.8h1.4l3 8.8 2.7-8.8H59l-3.7 10.9h-1.5l-2.9-8.7-2.9 8.7h-1.5l-3.7-10.9zM69.9 134.6v6.6h-1.6v-1.7c-.8 1.3-2.4 2-3.8 2-2.3 0-4-1.3-4-3.5s1.9-3.6 4.3-3.6c1.2 0 2.4.3 3.5.6v-.4c0-1.5-.6-3.1-2.9-3.1-1.1 0-2.2.5-3.2 1l-.6-1.3c1.6-.8 2.9-1 3.9-1 3-.1 4.4 1.7 4.4 4.4zm-1.5 3.2v-1.7c-1-.3-2.1-.4-3.3-.4-1.6 0-3 .9-3 2.2 0 1.3 1.2 2.1 2.7 2.1 1.4 0 3.1-.7 3.6-2.2zM79.1 130.1v1.4c-2.5 0-4.2 1.5-4.2 3.6v6.1h-1.6v-10.9h1.6v2.1c.6-1.4 2.2-2.3 4.2-2.3zM89.6 138.7l1 1c-.9 1-2.9 1.7-4.4 1.7-2.9 0-5.5-2.4-5.5-5.7 0-3.2 2.4-5.6 5.4-5.6 3.3 0 5.1 2.5 5.1 6.3h-8.9c.2 2.1 1.7 3.7 3.9 3.7 1.2-.1 2.7-.7 3.4-1.4zm-7.3-3.8h7.3c-.2-2-1.4-3.5-3.5-3.5-1.9.1-3.5 1.4-3.8 3.5zM99.3 133.9c0-4.1 3.4-7.5 7.4-7.5 2 0 3.8.8 5.2 2.2l-1.1 1.1c-1-1.1-2.5-1.8-4.1-1.8-3.1 0-5.7 2.7-5.7 5.9s2.6 6 5.7 6c1.6 0 3-.7 4.1-1.8l1.1 1.1c-1.3 1.3-3.2 2.2-5.2 2.2-4 .1-7.4-3.3-7.4-7.4zM122.9 134.6v6.6h-1.6v-1.7c-.8 1.3-2.4 2-3.8 2-2.3 0-4-1.3-4-3.5s1.9-3.6 4.3-3.6c1.2 0 2.4.3 3.5.6v-.4c0-1.5-.6-3.1-2.9-3.1-1.1 0-2.2.5-3.2 1l-.6-1.3c1.6-.8 2.9-1 3.9-1 3-.1 4.4 1.7 4.4 4.4zm-1.5 3.2v-1.7c-1-.3-2.1-.4-3.3-.4-1.6 0-3 .9-3 2.2 0 1.3 1.2 2.1 2.7 2.1 1.5 0 3.2-.7 3.6-2.2zM132.1 130.1v1.4c-2.5 0-4.2 1.5-4.2 3.6v6.1h-1.6v-10.9h1.6v2.1c.6-1.4 2.2-2.3 4.2-2.3zM144.9 135.7c0 3.3-2.1 5.7-5 5.7-1.7 0-3.1-.9-3.9-2.3v2h-1.6v-14.7h1.6v5.9c.8-1.4 2.2-2.3 3.9-2.3 2.9.1 5 2.4 5 5.7zm-1.6 0c0-2.5-1.5-4.3-3.6-4.3s-3.7 1.8-3.7 4.3 1.5 4.3 3.7 4.3c2.1 0 3.6-1.8 3.6-4.3zM147.1 135.7c0-3.1 2.6-5.7 5.6-5.7s5.6 2.6 5.6 5.7-2.6 5.7-5.6 5.7-5.6-2.6-5.6-5.7zm9.6 0c0-2.3-1.8-4.3-3.9-4.3-2.2 0-4 2-4 4.3s1.8 4.3 4 4.3c2 0 3.9-1.9 3.9-4.3zM170.2 134.3v6.9h-1.6v-6.7c0-1.8-1.1-3-2.7-3-1.8 0-3.4 1.3-3.4 2.8v6.9h-1.6v-10.9h1.6v1.7c.6-1.2 2-2 3.6-2 2.4.1 4.1 1.8 4.1 4.3zM40.6 151.9h6.6c2.3 0 4 1.5 4 3.6 0 1.5-.8 2.4-2.1 3.2 1.7.8 2.6 2.1 2.6 3.7 0 2.3-1.8 3.9-4.3 3.9h-6.9v-14.4zm6.2 6.2c1.6 0 2.7-1 2.7-2.3s-1.1-2.3-2.7-2.3h-4.6v4.6h4.6zm.2 6.8c1.8 0 3-1.1 3-2.7s-1.3-2.7-3-2.7h-4.8v5.3H47zM54.5 151.7h1.6v14.7h-1.6v-14.7zM68.1 159.8v6.6h-1.6v-1.7c-.8 1.3-2.4 2-3.8 2-2.3 0-4-1.3-4-3.5s1.9-3.6 4.3-3.6c1.2 0 2.4.3 3.5.6v-.4c0-1.5-.6-3.1-2.9-3.1-1.1 0-2.2.5-3.2 1l-.6-1.3c1.6-.8 2.9-1 3.9-1 2.9-.1 4.4 1.7 4.4 4.4zm-1.6 3.2v-1.7c-1-.3-2.1-.4-3.3-.4-1.6 0-3 .9-3 2.2 0 1.3 1.2 2.1 2.7 2.1 1.5 0 3.2-.7 3.6-2.2zM70.7 160.9c0-3.1 2.6-5.7 5.6-5.7 1.5 0 2.8.6 3.9 1.6l-1.1 1.1c-.7-.8-1.7-1.3-2.8-1.3-2.2 0-4 2-4 4.3s1.8 4.3 4 4.3c1.1 0 2.1-.5 2.8-1.3l1.1 1.1c-1 1-2.4 1.7-3.9 1.7-3-.1-5.6-2.7-5.6-5.8zM87.3 160.5l4.6 5.9h-2l-3.8-4.8-2 1.9v2.9h-1.6v-14.7h1.6v9.8l5.9-6h2l-4.7 5zM101.9 153.5v4.7h7.8v1.6h-7.8v5h8.7v1.6h-10.4V152h10.4v1.6h-8.7zM113.7 151.9h4.9c4.6 0 7.8 3 7.8 7.2s-3.2 7.2-7.8 7.2h-4.9v-14.4zm4.9 13c3.6 0 6.2-2.4 6.2-5.7 0-3.3-2.5-5.7-6.2-5.7h-3.2v11.4h3.2zM136.7 161l3.7 5.3h-1.9l-3.7-5.2H131v5.2h-1.6v-14.4h5.9c3 0 5.3 1.9 5.3 4.6 0 2.3-1.7 4.1-3.9 4.5zm-5.6-1.4h3.9c2.4 0 3.9-1.1 3.9-3.1s-1.6-3.1-3.9-3.1h-3.9v6.2z"/>
  </g>
</svg>
