<svg xmlns="http://www.w3.org/2000/svg" xmlns:xlink="http://www.w3.org/1999/xlink" viewBox="0 0 250 180">
  <path fill="none" stroke="#7f34b2" stroke-miterlimit="10" stroke-width="4" d="M163 102h-12c-2.2 0-4-1.8-4-4V86c0-2.2 1.8-4 4-4h12c2.2 0 4 1.8 4 4v12c0 2.2-1.8 4-4 4zm-3.9-15V70c0-2.2-1.8-4-4-4h-17c-2.2 0-4 1.8-4 4v17c0 2.2 1.8 4 4 4h17c2.2 0 4-1.8 4-4z"/>
  <path d="M17.1 124.9 10.4 140H8.5l-6.7-15.1h1.9l5.7 13 5.7-13h2zM20 124.9h1.7l5.6 10.5 5.6-10.5h1.7V140H33v-11.4l-5.6 10.5-5.6-10.5V140H20v-15.1zM37.4 128.6h1.8l2.8 9.2 3.1-9.2h1.4l3.1 9.2 2.8-9.2h1.8L50.4 140h-1.6l-3-9.1-3.1 9.1h-1.6l-3.7-11.4zM64 129.6c.8.9 1.2 2 1.2 3.4v6.9h-1.6v-1.8c-.4.6-1 1.1-1.7 1.5-.7.4-1.5.5-2.3.5-1.2 0-2.2-.3-3-1-.8-.7-1.2-1.5-1.2-2.6 0-.7.2-1.4.6-2s.9-1 1.6-1.3c.7-.3 1.4-.5 2.2-.5 1.1 0 2.4.2 3.7.6v-.4c0-.9-.2-1.7-.7-2.3-.5-.6-1.3-1-2.4-1-.5 0-1 .1-1.6.3s-1.1.4-1.7.8l-.7-1.3c1.5-.7 2.8-1.1 4.1-1.1 1.6.1 2.7.5 3.5 1.3zm-1.8 8.6c.7-.4 1.2-1 1.4-1.7v-1.7c-1.1-.3-2.3-.5-3.4-.5-.9 0-1.6.2-2.2.7-.6.4-.9 1-.9 1.7s.3 1.2.8 1.6c.5.4 1.2.6 2 .6s1.5-.3 2.3-.7zM72.1 129c.8-.4 1.7-.7 2.7-.7v1.5c-.9 0-1.6.2-2.3.5s-1.2.8-1.6 1.4c-.4.6-.6 1.2-.6 2v6.4h-1.6v-11.4h1.6v2.2c.5-.8 1-1.4 1.8-1.9zM84.3 138.4c.7-.3 1.2-.6 1.6-1l1 1.1c-.5.5-1.2 1-2 1.3-.9.3-1.7.5-2.5.5-1 0-2-.3-2.8-.8-.9-.5-1.6-1.2-2.1-2.1-.5-.9-.8-1.9-.8-3.1 0-1.1.3-2.1.8-3 .5-.9 1.2-1.6 2-2.1.9-.5 1.8-.8 2.8-.8 1.7 0 3 .6 4 1.8.9 1.2 1.4 2.8 1.4 4.8h-9.3c.1 1.1.5 2.1 1.3 2.8.7.7 1.7 1.1 2.8 1.1.5-.1 1.1-.2 1.8-.5zm-4.7-7.6c-.7.7-1.2 1.5-1.3 2.6H86c-.1-1.1-.5-2-1.1-2.6-.6-.7-1.5-1-2.6-1s-2 .4-2.7 1zM99.6 139.2c-1.2-.7-2.1-1.7-2.8-2.9s-1.1-2.5-1.1-3.9.4-2.7 1.1-3.9 1.7-2.1 2.8-2.9c1.2-.7 2.5-1.1 3.8-1.1 1 0 2 .2 2.9.6.9.4 1.8 1 2.5 1.7l-1.2 1.2c-.6-.6-1.2-1.1-1.9-1.4-.7-.3-1.5-.5-2.3-.5-1.1 0-2.1.3-3 .8-.9.6-1.6 1.3-2.2 2.3-.5 1-.8 2-.8 3.1s.3 2.1.8 3.1c.6 1 1.3 1.7 2.2 2.3.9.6 1.9.9 3 .9.8 0 1.6-.2 2.3-.5.7-.3 1.4-.8 1.9-1.4l1.2 1.2c-.7.7-1.5 1.3-2.5 1.7-.9.4-1.9.6-2.9.6-1.3.1-2.6-.3-3.8-1zM119.1 129.6c.8.9 1.2 2 1.2 3.4v6.9h-1.7v-1.8c-.4.6-1 1.1-1.7 1.5-.7.4-1.5.5-2.3.5-1.2 0-2.2-.3-3-1-.8-.7-1.2-1.5-1.2-2.6 0-.7.2-1.4.6-2s.9-1 1.6-1.3c.7-.3 1.4-.5 2.2-.5 1.1 0 2.4.2 3.7.6v-.4c0-.9-.2-1.7-.7-2.3-.5-.6-1.3-1-2.4-1-.5 0-1 .1-1.6.3-.5.2-1.1.4-1.7.8l-.7-1.3c1.5-.7 2.8-1.1 4.1-1.1 1.7.1 2.8.5 3.6 1.3zm-1.9 8.6c.7-.4 1.2-1 1.4-1.7v-1.7c-1.1-.3-2.3-.5-3.4-.5-.9 0-1.6.2-2.2.7-.6.4-.9 1-.9 1.7s.3 1.2.8 1.6 1.2.6 2 .6 1.6-.3 2.3-.7zM127.2 129c.8-.4 1.7-.7 2.7-.7v1.5c-.9 0-1.6.2-2.3.5-.7.3-1.2.8-1.6 1.4-.4.6-.6 1.2-.6 2v6.4h-1.7v-11.4h1.7v2.2c.4-.8 1-1.4 1.8-1.9zM141 129.1c.8.5 1.4 1.2 1.9 2.1.5.9.7 1.9.7 3.1 0 1.1-.2 2.2-.7 3.1-.5.9-1.1 1.6-1.9 2.1s-1.7.8-2.7.8c-.9 0-1.7-.2-2.4-.6-.7-.4-1.3-1-1.7-1.8v2.1h-1.7v-15.4h1.7v6.1c.4-.8 1-1.4 1.7-1.8.7-.4 1.5-.6 2.4-.6 1 .1 1.9.3 2.7.8zm-1 9.1c.6-.4 1-.9 1.4-1.6.3-.7.5-1.5.5-2.3 0-.9-.2-1.6-.5-2.3-.3-.7-.8-1.2-1.4-1.6-.6-.4-1.2-.6-2-.6-.7 0-1.4.2-2 .6s-1 .9-1.4 1.6c-.3.7-.5 1.4-.5 2.3 0 .9.2 1.6.5 2.3.3.7.8 1.2 1.4 1.6.6.4 1.2.6 2 .6s1.4-.2 2-.6zM148.5 139.5c-.9-.5-1.6-1.3-2.1-2.2-.5-.9-.8-1.9-.8-3s.3-2.1.8-3c.5-.9 1.2-1.6 2.1-2.2s1.9-.8 2.9-.8c1.1 0 2 .3 2.9.8.9.5 1.6 1.3 2.1 2.2s.8 1.9.8 3-.3 2.1-.8 3-1.2 1.6-2.1 2.2c-.9.5-1.9.8-2.9.8-1.1 0-2-.3-2.9-.8zm5-1.3c.6-.4 1.1-.9 1.5-1.6s.6-1.4.6-2.2-.2-1.6-.6-2.2c-.4-.7-.9-1.2-1.5-1.6s-1.3-.6-2.1-.6-1.4.2-2.1.6c-.6.4-1.1.9-1.5 1.6-.4.7-.6 1.4-.6 2.2s.2 1.6.6 2.2.9 1.2 1.5 1.6c.6.4 1.3.6 2.1.6s1.4-.2 2.1-.6zM167.7 128.9c.6.4 1.1.9 1.5 1.6.4.7.5 1.4.5 2.3v7.2h-1.6v-7c0-.9-.3-1.7-.8-2.3s-1.2-.9-2-.9c-.6 0-1.2.1-1.8.4-.5.3-1 .6-1.3 1.1-.3.4-.5.9-.5 1.5v7.2h-1.6v-11.4h1.6v1.8c.3-.6.8-1.1 1.5-1.5.7-.4 1.4-.6 2.2-.6.9.1 1.7.2 2.3.6zM179.8 124.9h6.9c.8 0 1.5.2 2.2.5.6.3 1.1.8 1.5 1.3.4.6.5 1.2.5 1.9 0 .8-.2 1.4-.5 1.9-.4.5-.9 1-1.6 1.4.9.4 1.6 1 2 1.7.5.7.7 1.4.7 2.2 0 .8-.2 1.5-.6 2.1-.4.6-.9 1.1-1.6 1.5-.7.4-1.5.5-2.3.5h-7.2v-15zm6.5 6.4c.8 0 1.5-.2 2.1-.7.5-.5.8-1 .8-1.7s-.3-1.3-.8-1.7c-.5-.5-1.2-.7-2.1-.7h-4.8v4.8h4.8zm.3 7.1c.9 0 1.7-.3 2.3-.8s.9-1.2.9-2-.3-1.5-.9-2-1.4-.8-2.3-.8h-5v5.6h5zM194.8 124.6h1.7V140h-1.7v-15.4zM207.8 129.6c.8.9 1.2 2 1.2 3.4v6.9h-1.6v-1.8c-.4.6-1 1.1-1.7 1.5-.7.4-1.5.5-2.3.5-1.2 0-2.2-.3-3-1-.8-.7-1.2-1.5-1.2-2.6 0-.7.2-1.4.6-2 .4-.6.9-1 1.6-1.3.7-.3 1.4-.5 2.2-.5 1.1 0 2.4.2 3.7.6v-.4c0-.9-.2-1.7-.7-2.3-.5-.6-1.3-1-2.4-1-.5 0-1 .1-1.6.3s-1.1.4-1.7.8l-.7-1.3c1.5-.7 2.8-1.1 4.1-1.1 1.6.1 2.7.5 3.5 1.3zm-1.9 8.6c.7-.4 1.2-1 1.4-1.7v-1.7c-1.1-.3-2.3-.5-3.4-.5-.9 0-1.6.2-2.2.7-.6.4-.9 1-.9 1.7s.3 1.2.8 1.6c.5.4 1.2.6 2 .6.8-.1 1.6-.3 2.3-.7zM214.5 139.5c-.9-.5-1.6-1.3-2.2-2.2-.5-.9-.8-1.9-.8-3s.3-2 .8-2.9c.5-.9 1.3-1.6 2.2-2.2.9-.5 1.9-.8 2.9-.8.8 0 1.5.1 2.2.4.7.3 1.3.7 1.9 1.2l-1.1 1.1c-.4-.4-.8-.7-1.3-1-.5-.2-1-.4-1.6-.4-.7 0-1.4.2-2.1.6-.6.4-1.1.9-1.5 1.6s-.6 1.4-.6 2.2c0 .8.2 1.6.6 2.2.4.7.9 1.2 1.5 1.6.6.4 1.3.6 2.1.6.6 0 1.1-.1 1.6-.4.5-.2 1-.6 1.4-1l1.1 1.1c-.5.5-1.2 1-1.9 1.3-.7.3-1.5.5-2.2.5-1.1.3-2.1 0-3-.5zM224 124.6h1.7v10.3l6.2-6.3h2.1l-5.1 5.2 4.8 6.2h-2.1l-3.9-5-2 2v3H224v-15.4zM244.1 125.9c.8.5 1.5 1.1 2 2 .5.8.7 1.7.7 2.7s-.2 1.9-.7 2.7c-.5.8-1.2 1.5-2 2s-1.7.7-2.7.7c-1 0-1.9-.2-2.7-.7-.8-.5-1.5-1.2-2-2s-.7-1.7-.7-2.7.2-1.9.7-2.7c.5-.8 1.2-1.5 2-2s1.7-.7 2.7-.7c1 0 1.9.2 2.7.7zm-.4 8.6c.7-.4 1.3-1 1.7-1.7.4-.7.6-1.5.6-2.3s-.2-1.6-.6-2.3c-.4-.7-1-1.3-1.7-1.7-.7-.4-1.5-.6-2.3-.6s-1.6.2-2.3.6c-.7.4-1.3 1-1.7 1.7-.4.7-.6 1.5-.6 2.3s.2 1.6.6 2.3c.4.7 1 1.3 1.7 1.7.7.4 1.5.6 2.3.6s1.6-.1 2.3-.6zm.3-3.6c-.3.4-.6.6-1 .8l1.5 2.2h-1.7l-1.4-2h-1v2h-1.7v-6.6h3.1c.7 0 1.4.2 1.8.6s.7 1 .7 1.7c0 .4-.1.9-.3 1.3zm-3.6-.7h1.3c.3 0 .5-.1.7-.2.2-.1.3-.3.3-.5s-.1-.3-.3-.5-.4-.2-.7-.2h-1.3v1.4zM64.4 163H56l-1.5 3.4h-1.9l6.7-15.1h1.9l6.7 15.1H66l-1.6-3.4zm-.7-1.7-3.5-7.9-3.5 7.9h7zM78.7 155.5c.8.5 1.4 1.2 1.9 2.1.5.9.7 1.9.7 3.1 0 1.1-.2 2.2-.7 3.1-.5.9-1.1 1.6-1.9 2.1s-1.7.8-2.7.8c-.9 0-1.7-.2-2.4-.6-.7-.4-1.3-1-1.7-1.8v5.9h-1.7V155h1.7v2.1c.4-.8 1-1.4 1.7-1.8.7-.4 1.5-.6 2.4-.6 1 .1 1.9.3 2.7.8zm-1 9.1c.6-.4 1-.9 1.4-1.6.3-.7.5-1.5.5-2.3 0-.9-.2-1.6-.5-2.3-.3-.7-.8-1.2-1.4-1.6-.6-.4-1.2-.6-2-.6-.7 0-1.4.2-2 .6s-1 .9-1.4 1.6c-.3.7-.5 1.4-.5 2.3 0 .9.2 1.6.5 2.3.3.7.8 1.2 1.4 1.6.6.4 1.2.6 2 .6.7 0 1.4-.2 2-.6zM92.7 155.5c.8.5 1.4 1.2 1.9 2.1.5.9.7 1.9.7 3.1 0 1.1-.2 2.2-.7 3.1-.5.9-1.1 1.6-1.9 2.1-.8.5-1.7.8-2.7.8-.9 0-1.7-.2-2.4-.6-.7-.4-1.3-1-1.7-1.8v5.9h-1.6V155h1.6v2.1c.4-.8 1-1.4 1.7-1.8.7-.4 1.5-.6 2.4-.6 1 .1 1.9.3 2.7.8zm-1.1 9.1c.6-.4 1-.9 1.4-1.6.3-.7.5-1.5.5-2.3 0-.9-.2-1.6-.5-2.3-.3-.7-.8-1.2-1.4-1.6-.6-.4-1.2-.6-2-.6s-1.4.2-2 .6c-.6.4-1 .9-1.4 1.6-.3.7-.5 1.4-.5 2.3 0 .9.2 1.6.5 2.3.3.7.8 1.2 1.4 1.6.6.4 1.2.6 2 .6s1.5-.2 2-.6zM107.4 165.6c-1.2-.7-2.1-1.7-2.8-2.9s-1.1-2.5-1.1-3.9.4-2.7 1.1-3.9 1.7-2.1 2.8-2.9c1.2-.7 2.5-1.1 3.8-1.1 1 0 2 .2 2.9.6.9.4 1.8 1 2.5 1.7l-1.2 1.2c-.6-.6-1.2-1.1-1.9-1.4-.7-.3-1.5-.5-2.3-.5-1.1 0-2.1.3-3 .8-.9.6-1.7 1.3-2.2 2.3-.5 1-.8 2-.8 3.1s.3 2.1.8 3.1 1.3 1.7 2.2 2.3c.9.6 1.9.9 3 .9.8 0 1.6-.2 2.3-.5.7-.3 1.4-.8 1.9-1.4l1.2 1.2c-.7.7-1.5 1.3-2.5 1.7-.9.4-1.9.6-2.9.6-1.3.1-2.6-.3-3.8-1zM121.4 165.9c-.9-.5-1.6-1.3-2.1-2.2s-.8-1.9-.8-3 .3-2.1.8-3 1.2-1.6 2.1-2.2c.9-.5 1.9-.8 2.9-.8s2 .3 2.9.8 1.6 1.3 2.1 2.2c.5.9.8 1.9.8 3s-.3 2.1-.8 3c-.5.9-1.2 1.6-2.1 2.2s-1.9.8-2.9.8-2-.3-2.9-.8zm5-1.3c.6-.4 1.1-.9 1.5-1.6s.6-1.4.6-2.2-.2-1.6-.6-2.2c-.4-.7-.9-1.2-1.5-1.6-.6-.4-1.3-.6-2.1-.6s-1.4.2-2.1.6-1.1.9-1.5 1.6c-.4.7-.6 1.4-.6 2.2s.2 1.6.6 2.2.9 1.2 1.5 1.6c.6.4 1.3.6 2.1.6s1.5-.2 2.1-.6zM140.6 155.3c.6.4 1.1.9 1.5 1.6.4.7.5 1.4.5 2.3v7.2H141v-7c0-.9-.3-1.7-.8-2.3-.5-.6-1.2-.9-2-.9-.6 0-1.2.1-1.8.4-.5.3-1 .6-1.3 1.1s-.5.9-.5 1.5v7.2H133V155h1.7v1.8c.3-.6.8-1.1 1.5-1.5.7-.4 1.4-.6 2.2-.6.8.1 1.6.2 2.2.6zM151.4 165.9c-.6.5-1.3.7-2.1.7s-1.5-.3-2-.8-.8-1.2-.8-2.1v-7.3h-1.8V155h1.8v-3.1h1.6v3.1h2.8v1.5h-2.8v7.3c0 .4.1.8.4 1s.5.4.9.4c.2 0 .5 0 .7-.1s.4-.2.5-.3l.8 1.1zM157.1 155.4c.8-.4 1.7-.7 2.7-.7v1.5c-.9 0-1.6.2-2.3.5s-1.2.8-1.6 1.4c-.4.6-.6 1.2-.6 2v6.4h-1.6V155h1.6v2.2c.5-.7 1.1-1.3 1.8-1.8zM164.5 165.9c-.9-.5-1.6-1.3-2.1-2.2s-.8-1.9-.8-3 .3-2.1.8-3 1.2-1.6 2.1-2.2c.9-.5 1.9-.8 2.9-.8s2 .3 2.9.8 1.6 1.3 2.1 2.2c.5.9.8 1.9.8 3s-.3 2.1-.8 3c-.5.9-1.2 1.6-2.1 2.2s-1.9.8-2.9.8-2-.3-2.9-.8zm5-1.3c.6-.4 1.1-.9 1.5-1.6s.6-1.4.6-2.2-.2-1.6-.6-2.2c-.4-.7-.9-1.2-1.5-1.6-.6-.4-1.3-.6-2.1-.6s-1.4.2-2.1.6-1.1.9-1.5 1.6c-.4.7-.6 1.4-.6 2.2s.2 1.6.6 2.2.9 1.2 1.5 1.6c.6.4 1.3.6 2.1.6s1.5-.2 2.1-.6zM176.1 151h1.7v15.4h-1.7V151zM183.2 155.3h-1.7v-1.7h5.2v1.7h-1.8v5h-1.7v-5zm4.5-1.6h1.7l2 3.3 2-3.3h1.7v6.6h-1.7v-3.7l-2 3.3-2-3.3v3.7h-1.7v-6.6z" class="st1"/>
  <g>
    <defs>
      <path id="SVGID_1_" d="M81 10v98h45.7c-1.7-1.5-2.7-3.6-2.7-6V66.5c0-4.4 3.6-8 8-8h26.6c4.4 0 8 3.6 8 8V102c0 2.4-1.1 4.5-2.7 6h3.1V10H81z"/>
    </defs>
    <clipPath id="SVGID_00000026843182730657913120000002132533704410008207_">
      <use xlink:href="#SVGID_1_" overflow="visible"/>
    </clipPath>
    <defs>
      <filter id="Adobe_OpacityMaskFilter" width="86" height="99.6" x="81" y="10" filterUnits="userSpaceOnUse">
        <feColorMatrix values="1 0 0 0 0 0 1 0 0 0 0 0 1 0 0 0 0 0 1 0"/>
      </filter>
    </defs>
    <mask id="opacityMask_00000007396662811572117380000004379418453941033645_" width="86" height="99.6" x="81" y="10" maskUnits="userSpaceOnUse">
      <path fill="#fff" d="M34 0h180v180H34z" clip-path="url(#SVGID_00000026843182730657913120000002132533704410008207_)" filter="url(#Adobe_OpacityMaskFilter)"/>
      <path fill="none" stroke="#000" stroke-width="7" d="m76.5 5.5 13 13m82-13-13 13M124 102v8" clip-path="url(#SVGID_00000026843182730657913120000002132533704410008207_)"/>
    </mask>
    <g fill="none" stroke-miterlimit="10" stroke-width="4" clip-path="url(#SVGID_00000026843182730657913120000002132533704410008207_)" mask="url(#opacityMask_00000007396662811572117380000004379418453941033645_)">
      <path stroke="#0091da" d="M165 12v47.7c0 25.7-41 47.7-41 47.7s-41-22-41-47.7V12"/>
      <path stroke="#7f35b2" d="M83 12h82"/>
    </g>
    <path fill="none" stroke="#1d428a" stroke-miterlimit="10" stroke-width="4" d="M94 23h60v34.9c0 18.8-30 34.9-30 34.9s-30-16-30-34.9V23zm2.6 44.8L154 34.7" clip-path="url(#SVGID_00000026843182730657913120000002132533704410008207_)"/>
    <path fill="#fff" d="M158.6 110H132c-4.4 0-8-3.6-8-8V66.5c0-4.4 3.6-8 8-8h26.6c4.4 0 8 3.6 8 8V102c0 4.4-3.6 8-8 8z" clip-path="url(#SVGID_00000026843182730657913120000002132533704410008207_)"/>
  </g>
</svg>
