<?xml version="1.0" encoding="UTF-8" standalone="no"?>
<!-- Created with Inkscape (http://www.inkscape.org/) -->

<svg
   width="64px"
   height="64px"
   id="svg4310"
   version="1.1"
   inkscape:version="1.1.2 (0a00cf5339, 2022-02-04)"
   sodipodi:docname="Help_icon.svg"
   xmlns:inkscape="http://www.inkscape.org/namespaces/inkscape"
   xmlns:sodipodi="http://sodipodi.sourceforge.net/DTD/sodipodi-0.dtd"
   xmlns="http://www.w3.org/2000/svg"
   xmlns:svg="http://www.w3.org/2000/svg"
   xmlns:rdf="http://www.w3.org/1999/02/22-rdf-syntax-ns#"
   xmlns:cc="http://creativecommons.org/ns#"
   xmlns:dc="http://purl.org/dc/elements/1.1/">
  <defs
     id="defs4312" />
  <sodipodi:namedview
     id="base"
     pagecolor="#ffffff"
     bordercolor="#666666"
     borderopacity="1.0"
     inkscape:pageopacity="0.0"
     inkscape:pageshadow="2"
     inkscape:zoom="8.109375"
     inkscape:cx="32.061657"
     inkscape:cy="32"
     inkscape:current-layer="layer1"
     showgrid="true"
     inkscape:document-units="px"
     inkscape:grid-bbox="true"
     inkscape:window-width="1840"
     inkscape:window-height="900"
     inkscape:window-x="0"
     inkscape:window-y="0"
     inkscape:window-maximized="1"
     inkscape:pagecheckerboard="0" />
  <metadata
     id="metadata4315">
    <rdf:RDF>
      <cc:Work
         rdf:about="">
        <dc:format>image/svg+xml</dc:format>
        <dc:type
           rdf:resource="http://purl.org/dc/dcmitype/StillImage" />
      </cc:Work>
    </rdf:RDF>
  </metadata>
  <g
     id="layer1"
     inkscape:label="Layer 1"
     inkscape:groupmode="layer">
    <path
       style="fill:#ffffff;fill-opacity:1"
       d="m 15.762549,38.922 c -1.06334,-0.882165 -1.32499,-1.498527 -1.34729,-3.173687 -0.037,-2.776797 1.52601,-5.152147 5.67899,-8.630675 5.33259,-4.466575 6.47416,-8.564501 3.27186,-11.745039 -1.18764,-1.179564 -1.76451,-1.372444 -4.14809,-1.386933 -3.41515,-0.02075 -4.87489,0.960552 -6.75278,4.539549 -1.6751,3.192528 -3.0518803,4.181224 -5.2319903,3.757233 -5.75464,-1.119178 -2.91387,-10.115689 4.4180303,-13.9915496 1.669,-0.8822891 3.09519,-1.1704971 6.45082,-1.3036071 7.53077,-0.29873 12.28335,2.0120271 14.86673,7.2283727 1.14469,2.311347 1.3024,3.11896 1.16013,5.941025 -0.21059,4.177607 -1.49939,6.168229 -6.95257,10.738659 -2.83149,2.373136 -4.27783,3.97627 -4.98858,5.529385 -1.69628,3.706674 -3.92388,4.57246 -6.42526,2.497267 l 0,0 z"
       id="path4333"
       inkscape:connector-curvature="0"
       inkscape:export-filename="/home/slist/cbapi-qt-demo/img/help.png"
       inkscape:export-xdpi="96"
       inkscape:export-ydpi="96" />
    <path
       style="fill:#ffffff;fill-opacity:1"
       d="m 14.509119,51.233541 c -2.05979,-2.285886 -2.15553,-4.889987 -0.25783,-7.012744 2.73307,-3.057201 7.61599,-1.593986 8.37255,2.508922 0.87511,4.745715 -4.97233,7.991152 -8.11472,4.503822 z"
       id="path4337"
       inkscape:connector-curvature="0"
       inkscape:export-filename="/home/slist/cbapi-qt-demo/img/help.png"
       inkscape:export-xdpi="96"
       inkscape:export-ydpi="96" />
    <path
       sodipodi:type="arc"
       style="fill:#0000ff;fill-opacity:1"
       id="path4339"
       sodipodi:cx="34.978806"
       sodipodi:cy="36.861271"
       sodipodi:rx="24.123314"
       sodipodi:ry="25.932562"
       d="m 59.102119,36.861271 a 24.123314,25.932562 0 1 1 -48.246627,0 24.123314,25.932562 0 1 1 48.246627,0 z"
       transform="matrix(1.2376996,0,0,1.145033,-10.225819,-11.080207)"
       inkscape:export-filename="/home/slist/cbapi-qt-demo/img/help.png"
       inkscape:export-xdpi="96"
       inkscape:export-ydpi="96" />
    <path
       style="fill:#ffffff;fill-opacity:1"
       d="m 29.191588,39.791319 c -1.06334,-0.882165 -1.32499,-1.498527 -1.34729,-3.173687 -0.037,-2.776797 1.52601,-5.152147 5.678992,-8.630675 5.33259,-4.466575 6.47416,-8.564501 3.27186,-11.745039 -1.18764,-1.179564 -1.76451,-1.372444 -4.14809,-1.386933 -3.415152,-0.02075 -4.874892,0.960552 -6.752782,4.539549 -1.6751,3.192528 -3.05188,4.181224 -5.23199,3.757233 -5.754639,-1.119178 -2.913869,-10.115689 4.41803,-13.9915503 1.669,-0.882289 3.09519,-1.170497 6.45082,-1.303607 7.530772,-0.29873 12.283352,2.012027 14.866732,7.2283733 1.14469,2.311347 1.3024,3.11896 1.16013,5.941025 -0.21059,4.177607 -1.49939,6.168229 -6.95257,10.738659 -2.83149,2.373136 -4.27783,3.97627 -4.98858,5.529385 -1.69628,3.706674 -3.923882,4.57246 -6.425262,2.497267 l 0,0 z"
       id="path4333-2"
       inkscape:connector-curvature="0"
       inkscape:export-filename="/home/slist/cbapi-qt-demo/img/help.png"
       inkscape:export-xdpi="96"
       inkscape:export-ydpi="96" />
    <path
       style="fill:#ffffff;fill-opacity:1"
       d="m 27.938158,52.10286 c -2.05979,-2.285886 -2.15553,-4.889987 -0.25783,-7.012744 2.73307,-3.057201 7.615992,-1.593986 8.372552,2.508922 0.87511,4.745715 -4.972332,7.991152 -8.114722,4.503822 z"
       id="path4337-7"
       inkscape:connector-curvature="0"
       inkscape:export-filename="/home/slist/cbapi-qt-demo/img/help.png"
       inkscape:export-xdpi="96"
       inkscape:export-ydpi="96" />
  </g>
</svg>
