<?xml version="1.0" encoding="UTF-8" standalone="no"?>
<!-- Created with Inkscape (http://www.inkscape.org/) -->

<svg
   width="1024mm"
   height="1024mm"
   viewBox="0 0 1024 1024"
   version="1.1"
   id="svg5"
   inkscape:version="1.1.2 (0a00cf5339, 2022-02-04)"
   sodipodi:docname="qt-cbapi.svg"
   inkscape:export-filename="/home/slist/cbapi-qt-demo/img/qt-cbapi_1024.png"
   inkscape:export-xdpi="25.4"
   inkscape:export-ydpi="25.4"
   xmlns:inkscape="http://www.inkscape.org/namespaces/inkscape"
   xmlns:sodipodi="http://sodipodi.sourceforge.net/DTD/sodipodi-0.dtd"
   xmlns="http://www.w3.org/2000/svg"
   xmlns:svg="http://www.w3.org/2000/svg">
  <sodipodi:namedview
     id="namedview7"
     pagecolor="#ffffff"
     bordercolor="#666666"
     borderopacity="1.0"
     inkscape:pageshadow="2"
     inkscape:pageopacity="0.0"
     inkscape:pagecheckerboard="0"
     inkscape:document-units="px"
     showgrid="false"
     width="1024mm"
     inkscape:snap-bbox="true"
     inkscape:zoom="0.14921787"
     inkscape:cx="1628.4912"
     inkscape:cy="1899.9064"
     inkscape:window-width="1844"
     inkscape:window-height="904"
     inkscape:window-x="0"
     inkscape:window-y="0"
     inkscape:window-maximized="1"
     inkscape:current-layer="layer1" />
  <defs
     id="defs2" />
  <g
     inkscape:label="Layer 1"
     inkscape:groupmode="layer"
     id="layer1">
    <rect
       style="fill:#1a428a;fill-opacity:1;stroke:#1a428a;stroke-width:136.844;stroke-linejoin:round;stroke-miterlimit:4;stroke-dasharray:none;stroke-dashoffset:0;stroke-opacity:1"
       id="rect869"
       width="893.62384"
       height="890.14697"
       x="70.822037"
       y="65.358528" />
    <g
       style="fill:none"
       id="g833"
       transform="matrix(2.1721003,0,0,2.1040802,103.40715,140.22318)">
      <path
         fill-rule="evenodd"
         clip-rule="evenodd"
         d="M 0,25.6 25.6,0 H 224 V 134.4 L 198.4,160 H 0 Z m 106.624,120.944 14.832,-6.912 h -0.016 l -12.096,-19.44 c 5.568,-3.744 9.584,-9.168 12.032,-16.272 2.432,-7.104 3.664,-16.416 3.664,-27.936 0,-17.472 -2.976,-30.416 -8.928,-38.816 -5.952,-8.4 -16.32,-12.608 -31.104,-12.608 -14.784,0 -25.168,4.224 -31.168,12.672 -6,8.464 -8.992,21.392 -8.992,38.816 0,17.424 2.944,30.176 8.848,38.24 5.92,8.064 16.352,12.096 31.328,12.096 4.032,0 6.96,-0.288 8.784,-0.864 z m 40.016,-25.776 c 3.024,3.744 8.624,5.616 16.784,5.616 3.36,0 8.256,-0.624 14.688,-1.872 l -0.72,-12.528 -11.808,0.432 c -3.552,0 -5.76,-0.96 -6.624,-2.88 -0.864,-1.92 -1.296,-5.808 -1.296,-11.664 v -31.68 h 19.872 V 52.8 H 157.664 V 31.92 H 142.112 V 52.8 h -9.216 v 13.392 h 9.216 V 99.6 c 0,10.368 1.504,17.424 4.528,21.168 z M 66.4482,47.4719 c 3.36,-5.952 9.552,-8.928 18.576,-8.928 9.024,0 15.1998,2.976 18.5118,8.928 3.296,5.952 4.96,15.504 4.96,28.656 0,13.152 -1.6,22.48 -4.816,28.0001 -3.232,5.52 -9.4398,8.272 -18.6558,8.272 -9.216,0 -15.456,-2.8 -18.72,-8.416 -3.264,-5.6161 -4.896,-14.9441 -4.896,-28.0001 0,-13.056 1.68,-22.56 5.04,-28.512 z"
         fill="#2cde85"
         id="path824" />
    </g>
    <text
       xml:space="preserve"
       style="font-style:normal;font-weight:normal;font-size:306.216px;line-height:1.25;font-family:sans-serif;fill:#ffffff;fill-opacity:1;stroke:none;stroke-width:1.59487"
       x="88.259727"
       y="828.91248"
       id="text23410"
       transform="scale(0.97718448,1.0233482)"><tspan
         sodipodi:role="line"
         id="tspan23408"
         style="font-size:306.216px;fill:#ffffff;stroke-width:1.59487"
         x="88.259727"
         y="828.91248">CBAPI</tspan></text>
  </g>
</svg>
