<?xml version="1.0" encoding="iso-8859-1"?>
<!-- Generator: Adobe Illustrator 17.1.0, SVG Export Plug-In . SVG Version: 6.00 Build 0)  -->
<!DOCTYPE svg PUBLIC "-//W3C//DTD SVG 1.1//EN" "http://www.w3.org/Graphics/SVG/1.1/DTD/svg11.dtd">
<svg version="1.1" id="Capa_1" xmlns="http://www.w3.org/2000/svg" xmlns:xlink="http://www.w3.org/1999/xlink" x="0px" y="0px"
	 viewBox="0 0 303.334 303.334" style="enable-background:new 0 0 303.334 303.334;" xml:space="preserve">
<g>
	<path style="fill:#222220;" d="M284.656,117.013l-32.409-32.408c-2.928-2.928-7.677-2.928-10.606,0l-28.821,28.821
		c-0.002,0.002-0.005,0.004-0.007,0.007s-0.004,0.005-0.007,0.007l-73.936,73.935c-1.109,1.11-1.844,2.541-2.098,4.091
		l-6.354,38.764c-0.391,2.383,0.391,4.809,2.098,6.517c1.418,1.417,3.331,2.196,5.304,2.196c0.403,0,0.809-0.032,1.213-0.099
		l38.764-6.354c1.55-0.254,2.98-0.988,4.091-2.098L284.657,127.62c1.406-1.407,2.196-3.314,2.196-5.304
		S286.063,118.42,284.656,117.013z M172.987,218.076l-26.078,4.275l4.275-26.078l66.932-66.931l21.802,21.802L172.987,218.076z
		 M250.526,140.538l-21.802-21.802l18.221-18.221l21.803,21.802L250.526,140.538z"/>
	<path style="fill:#222220;" d="M248.116,192.855c-4.143,0-7.5,3.357-7.5,7.5v87.979H31.48V15h209.136v48.888
		c0,4.143,3.357,7.5,7.5,7.5s7.5-3.357,7.5-7.5V7.5c0-4.143-3.357-7.5-7.5-7.5H23.98c-4.143,0-7.5,3.357-7.5,7.5v288.334
		c0,4.143,3.357,7.5,7.5,7.5h224.136c4.143,0,7.5-3.357,7.5-7.5v-95.479C255.616,196.213,252.259,192.855,248.116,192.855z"/>
	<path style="fill:#222220;" d="M114.652,42.107c-2.93-2.928-7.678-2.928-10.607,0L75.463,70.69L64.151,59.378
		c-2.93-2.928-7.678-2.928-10.607,0c-2.929,2.93-2.929,7.678,0,10.607l16.615,16.615c1.465,1.464,3.385,2.196,5.304,2.196
		s3.839-0.732,5.304-2.196l33.886-33.886C117.581,49.785,117.581,45.037,114.652,42.107z"/>
	<path style="fill:#222220;" d="M114.652,130.456c-2.93-2.928-7.678-2.928-10.607,0l-28.582,28.583l-11.312-11.313
		c-2.93-2.928-7.678-2.928-10.607,0c-2.929,2.93-2.929,7.678,0,10.607l16.615,16.615c1.465,1.464,3.385,2.196,5.304,2.196
		s3.839-0.732,5.304-2.196l33.886-33.886C117.581,138.134,117.581,133.386,114.652,130.456z"/>
	<path style="fill:#222220;" d="M104.045,218.806l-28.582,28.583l-11.312-11.313c-2.93-2.928-7.678-2.928-10.607,0
		c-2.929,2.93-2.929,7.678,0,10.607l16.615,16.615c1.407,1.406,3.314,2.196,5.304,2.196s3.896-0.79,5.304-2.197l33.886-33.886
		c2.929-2.93,2.929-7.678,0-10.607C111.723,215.877,106.975,215.876,104.045,218.806z"/>
</g>
<g>
</g>
<g>
</g>
<g>
</g>
<g>
</g>
<g>
</g>
<g>
</g>
<g>
</g>
<g>
</g>
<g>
</g>
<g>
</g>
<g>
</g>
<g>
</g>
<g>
</g>
<g>
</g>
<g>
</g>
</svg>
